<?xml version="1.0" standalone="no"?>
<!DOCTYPE svg PUBLIC "-//W3C//DTD SVG 20010904//EN"
 "http://www.w3.org/TR/2001/REC-SVG-20010904/DTD/svg10.dtd">
<svg version="1.0" xmlns="http://www.w3.org/2000/svg"
 width="500.000000pt" height="500.000000pt" viewBox="0 0 500.000000 500.000000"
 preserveAspectRatio="xMidYMid meet">

<g transform="translate(0.000000,500.000000) scale(0.100000,-0.100000)"
fill="#000000" stroke="none">
<path d="M2441 4812 c-52 -53 -87 -73 -246 -138 -38 -15 -86 -43 -107 -62 -38
-34 -98 -140 -98 -173 0 -17 -4 -16 -52 6 -105 49 -178 43 -327 -24 -103 -46
-188 -65 -254 -58 l-48 6 6 -42 c10 -63 -11 -159 -55 -256 -21 -47 -44 -108
-50 -134 -13 -60 1 -155 30 -204 11 -20 20 -36 18 -37 -2 -1 -29 -10 -62 -20
-82 -25 -153 -96 -191 -191 -60 -152 -84 -195 -138 -250 l-54 -56 54 -54 c53
-54 74 -91 139 -250 15 -38 46 -89 67 -112 41 -45 126 -93 164 -93 l23 0 -19
-38 c-11 -21 -24 -66 -31 -100 -13 -75 1 -146 50 -242 41 -80 63 -181 56 -247
l-6 -52 48 6 c65 7 151 -12 253 -58 148 -66 232 -71 335 -19 21 11 38 19 39
17 1 -1 7 -20 13 -42 17 -59 65 -130 112 -164 23 -17 85 -47 138 -67 103 -39
171 -82 221 -139 l30 -35 55 56 c54 53 115 88 227 128 110 39 195 123 220 216
7 25 13 46 14 48 2 2 20 -6 42 -17 50 -27 135 -42 187 -35 22 4 84 26 136 49
111 50 195 70 263 61 l50 -5 -6 43 c-10 70 10 160 60 269 42 92 47 109 47 177
0 56 -6 87 -22 124 -12 27 -22 52 -22 55 0 4 20 12 44 19 52 14 119 63 161
118 17 22 46 82 64 133 34 96 78 164 140 218 l36 31 -41 36 c-57 49 -96 113
-140 229 -53 140 -134 224 -236 242 l-36 7 26 56 c21 46 26 72 26 132 0 67 -5
86 -48 183 -50 113 -70 204 -59 269 l5 37 -49 -5 c-69 -9 -153 11 -268 64 -89
40 -107 45 -175 46 -61 1 -85 -4 -130 -25 l-56 -26 -17 60 c-15 48 -29 71 -75
117 -49 49 -70 61 -151 90 -108 39 -196 92 -237 144 -16 20 -31 35 -34 34 -3
0 -29 -26 -59 -56z m196 -125 c26 -13 80 -35 118 -48 56 -19 81 -35 125 -79
62 -62 80 -104 80 -194 0 -31 4 -56 8 -56 5 0 19 12 33 26 77 83 198 106 310
60 146 -61 195 -77 254 -83 l61 -6 10 -76 c7 -52 26 -110 57 -183 40 -90 47
-117 47 -170 0 -74 -30 -146 -79 -192 -17 -17 -31 -33 -31 -38 0 -4 28 -8 63
-8 126 0 219 -74 271 -216 34 -95 66 -153 113 -205 l35 -39 -40 -44 c-46 -50
-67 -88 -107 -196 -36 -95 -67 -142 -113 -172 -54 -36 -97 -48 -170 -48 l-65
0 42 -46 c59 -63 81 -115 81 -193 0 -53 -7 -78 -42 -155 -44 -98 -68 -179 -68
-237 l0 -36 -63 -6 c-61 -6 -126 -27 -252 -81 -111 -47 -215 -31 -303 48 -21
20 -42 36 -46 36 -3 0 -6 -28 -6 -62 0 -124 -76 -222 -206 -267 -100 -35 -160
-67 -208 -111 l-42 -39 -49 40 c-53 44 -116 79 -180 99 -154 49 -234 144 -235
278 0 34 -4 62 -8 62 -4 0 -23 -15 -41 -34 -86 -89 -203 -98 -356 -29 -93 42
-170 63 -230 63 -33 0 -35 2 -35 35 0 60 -21 137 -63 230 -71 156 -62 258 31
357 l45 48 -69 0 c-129 0 -212 59 -264 189 -56 138 -65 155 -108 213 -23 32
-42 61 -42 64 0 4 16 24 35 45 40 45 62 85 105 198 57 146 140 211 274 211
l69 0 -45 48 c-93 99 -102 209 -30 362 41 87 62 164 62 225 0 34 1 35 38 35
57 0 138 23 232 66 148 66 250 58 347 -30 22 -20 43 -36 47 -36 3 0 6 25 6 56
0 79 17 128 63 180 40 45 98 80 172 104 64 20 127 55 180 99 l49 40 42 -39
c23 -21 64 -50 91 -63z"/>
<path d="M1761 3731 l-23 -18 63 -40 c315 -197 688 -423 698 -423 7 0 182 104
388 232 l376 231 -23 19 c-13 10 -28 17 -34 15 -6 -3 -166 -100 -355 -216
-189 -116 -347 -211 -352 -211 -5 0 -166 97 -359 215 -192 118 -351 215 -353
215 -1 0 -13 -9 -26 -19z"/>
<path d="M1638 3695 l-27 -24 52 -32 c28 -17 227 -142 440 -276 241 -153 394
-243 405 -240 9 2 206 124 437 271 231 146 425 267 430 269 13 5 -24 47 -42
47 -7 0 -196 -113 -419 -251 -234 -144 -413 -249 -423 -246 -12 3 -657 397
-806 493 -17 11 -24 9 -47 -11z"/>
<path d="M1560 3566 c8 -7 193 -145 410 -307 217 -161 527 -391 689 -512 162
-120 313 -228 335 -240 38 -20 58 -22 241 -25 121 -2 196 0 190 6 -5 5 -206
132 -445 283 -239 150 -626 394 -860 541 l-425 268 -75 0 c-64 0 -72 -2 -60
-14z"/>
<path d="M3234 3536 c-38 -24 -212 -134 -387 -244 l-317 -200 52 -32 c29 -18
62 -39 74 -47 20 -13 46 5 400 268 208 154 383 285 389 290 5 5 -21 9 -66 9
-72 0 -79 -2 -145 -44z"/>
<path d="M1941 2722 l-374 -237 180 -3 c161 -2 187 0 235 18 33 12 132 79 263
176 116 86 214 159 218 163 6 6 -134 123 -145 120 -2 0 -171 -107 -377 -237z"/>
<path d="M2070 1008 c0 -504 1 -535 19 -564 18 -30 74 -64 104 -64 13 0 13 5
1 38 -10 29 -13 139 -14 495 l0 458 24 24 25 25 -80 60 -79 61 0 -533z"/>
<path d="M897 1522 c-4 -5 -27 -15 -52 -22 -40 -11 -51 -11 -81 3 -48 23 -55
22 -98 -18 -30 -27 -36 -39 -31 -57 11 -33 11 -33 45 -4 36 30 50 32 88 12 25
-13 33 -12 81 7 33 14 57 30 62 43 8 22 -4 53 -14 36z"/>
<path d="M1863 1473 l-73 -55 25 -20 25 -19 0 -389 c0 -427 1 -420 -60 -420
-53 0 -60 24 -60 215 0 157 -2 174 -24 220 -48 103 -134 159 -246 159 -205 0
-331 -208 -239 -392 81 -162 265 -200 368 -75 l31 38 0 -66 c0 -106 5 -104
-277 -104 -235 0 -235 0 -254 24 -18 21 -19 42 -19 273 l0 249 -79 -61 -80
-60 25 -25 24 -24 0 -253 c0 -283 -8 -337 -61 -420 -17 -26 -47 -61 -67 -78
l-37 -30 35 6 c119 21 223 127 237 242 l5 47 260 -3 c244 -3 262 -2 302 17
l42 21 40 -21 c30 -16 51 -19 91 -16 45 5 54 2 75 -20 26 -28 69 -53 92 -53
13 0 14 4 3 28 -8 20 -12 176 -15 575 -2 301 -6 547 -10 546 -4 0 -40 -25 -79
-56z m-333 -445 c47 -32 71 -68 77 -117 l6 -42 -26 12 c-22 10 -31 9 -52 -5
-37 -25 -32 -75 10 -95 l30 -14 -35 -13 c-128 -46 -244 21 -244 141 0 61 19
95 74 133 23 15 48 22 80 22 32 0 57 -7 80 -22z"/>
<path d="M720 933 c0 -430 1 -460 19 -489 18 -30 74 -64 104 -64 13 0 13 5 0
41 -11 33 -13 115 -11 431 l3 389 23 18 24 17 -76 57 c-41 31 -78 57 -81 57
-3 0 -5 -206 -5 -457z"/>
<path d="M1356 1324 c-19 -18 -21 -65 -4 -82 18 -18 63 -14 81 6 47 52 -28
126 -77 76z"/>
<path d="M1497 1322 c-35 -38 -10 -92 42 -92 15 0 32 5 39 12 17 17 15 64 -4
82 -21 21 -57 20 -77 -2z"/>
<path d="M312 1154 c-26 -18 -30 -65 -7 -84 8 -7 26 -12 40 -12 35 0 55 19 55
53 0 27 -30 59 -55 59 -6 0 -21 -7 -33 -16z"/>
<path d="M2882 1154 c-26 -18 -30 -65 -7 -84 8 -7 26 -12 40 -12 35 0 55 19
55 53 0 27 -30 59 -55 59 -6 0 -21 -7 -33 -16z"/>
<path d="M3020 1150 c-27 -27 -23 -57 11 -83 30 -22 60 -13 80 24 9 17 7 27
-8 48 -26 34 -56 38 -83 11z"/>
<path d="M3303 1047 c-70 -52 -80 -63 -65 -71 9 -5 20 -14 24 -20 4 -6 8 -90
8 -187 0 -152 -2 -178 -17 -190 -13 -11 -71 -14 -282 -14 -146 0 -283 4 -304
8 -45 10 -105 60 -123 104 -34 80 -7 202 59 272 33 35 118 81 150 81 10 0 15
5 12 10 -3 6 -34 10 -68 10 -109 0 -208 -65 -259 -169 -33 -68 -32 -177 3
-251 31 -66 82 -118 146 -151 48 -24 48 -24 373 -24 l325 0 18 -23 c36 -43
119 -72 101 -34 -5 9 -11 173 -14 364 l-5 346 -82 -61z"/>
<path d="M3695 1098 c-50 -19 -102 -55 -129 -91 -47 -62 -56 -97 -56 -229 0
-108 3 -129 24 -173 41 -89 135 -155 221 -155 50 0 116 40 139 84 25 50 33
134 14 160 -17 21 -61 25 -83 6 -32 -27 -6 -99 36 -100 38 -1 -43 -29 -85 -30
-61 0 -110 28 -136 81 -29 55 -28 203 0 259 64 126 259 102 291 -36 12 -53 11
-428 -1 -482 -21 -90 -82 -155 -185 -197 l-56 -22 42 -7 c86 -14 181 25 247
99 41 47 72 117 72 164 l0 26 393 0 c388 0 392 0 409 -21 20 -24 77 -54 103
-54 15 0 16 2 4 17 -11 12 -15 75 -19 267 -5 234 -7 254 -27 292 -123 231
-459 189 -511 -63 l-8 -38 -57 -3 -57 -3 0 50 c0 41 4 53 25 69 l25 20 -75 56
c-41 31 -77 56 -80 56 -2 0 -6 -120 -7 -267 l-3 -268 -40 3 c-70 6 -73 13 -77
190 -3 138 -6 162 -25 198 -29 54 -75 99 -127 126 -48 25 -156 33 -201 16z
m1025 -113 c14 -4 39 -21 57 -38 43 -40 56 -103 52 -239 -3 -87 -7 -111 -22
-125 -16 -16 -44 -18 -272 -21 l-255 -3 0 90 0 91 66 0 c58 0 69 -3 104 -31
92 -74 251 -28 196 56 -21 32 -70 34 -88 5 -17 -27 -24 -25 -37 11 -16 47 -13
85 9 129 22 44 54 69 103 80 32 8 42 7 87 -5z"/>
<path d="M513 1044 l-71 -55 24 -25 25 -24 -3 -308 -3 -309 -29 -37 c-74 -97
-217 -82 -267 28 -16 36 -19 68 -19 262 0 255 8 295 67 356 41 42 37 45 -28
23 -52 -19 -103 -65 -130 -118 -19 -36 -20 -56 -17 -290 3 -236 4 -255 25
-292 50 -92 137 -144 243 -145 111 0 204 59 249 160 20 43 21 64 21 438 0 215
-3 392 -7 391 -5 0 -40 -25 -80 -55z"/>
</g>
</svg>
