<svg width="90" height="90" viewBox="0 0 90 90" fill="none" xmlns="http://www.w3.org/2000/svg">
<path d="M47 47.3233L60.5149 58H74L53.7553 42L47 47.3233Z" fill="black"/>
<path d="M41 32.7202L4.37582 5L0 12.1758L34.055 38L41 32.7202Z" fill="black"/>
<path d="M78.6022 0L59.5769 7.7152C52.2996 10.6664 47.124 18.5656 46 28L81 1.90491L78.6022 0Z" fill="black"/>
<path d="M28.4263 7.71465L9.40106 0L7 1.90678L42 28C40.8789 18.5614 35.7034 10.6676 28.4261 7.71567L28.4263 7.71465Z" fill="black"/>
<path d="M14 58H27.5901L88 12.0729L83.7031 5L14 58ZM44.4753 43.0861C43.1774 43.0861 42.123 41.7085 42.123 40.013C42.123 38.3173 43.1775 36.9398 44.4753 36.9398C45.7731 36.9398 46.8275 38.3174 46.8275 40.013C46.8275 41.7086 45.7731 43.0861 44.4753 43.0861Z" fill="black"/>
<path d="M0.71875 81.028C0.71875 79.2051 1.16667 77.7806 2.0625 76.7545C2.96354 75.7233 4.26042 75.2077 5.95312 75.2077C7.64583 75.2077 8.9401 75.7259 9.83594 76.7624C10.737 77.7936 11.1875 79.2207 11.1875 81.0436C11.1875 82.8665 10.7396 84.2962 9.84375 85.3327C9.09375 86.192 8.07031 86.692 6.77344 86.8327C6.82552 87.3379 7.01302 87.7415 7.33594 88.0436C7.65885 88.3457 8.11979 88.4967 8.71875 88.4967C9.04167 88.4967 9.30469 88.4707 9.50781 88.4186C9.71094 88.3665 9.82552 88.3952 9.85156 88.5045L10.0078 89.192C10.0339 89.317 9.96875 89.3978 9.8125 89.4342C9.34896 89.5384 8.90104 89.5905 8.46875 89.5905C7.34896 89.5905 6.54688 89.3092 6.0625 88.7467C5.58333 88.1894 5.32031 87.5566 5.27344 86.8483C3.90885 86.7233 2.83854 86.2129 2.0625 85.317C1.16667 84.2806 0.71875 82.8509 0.71875 81.028ZM2.32031 81.0436C2.32031 82.5019 2.61979 83.6374 3.21875 84.4499C3.81771 85.2572 4.72917 85.6608 5.95312 85.6608C7.17708 85.6608 8.08854 85.2572 8.6875 84.4499C9.28646 83.6374 9.58594 82.5019 9.58594 81.0436C9.58594 79.5853 9.28646 78.4525 8.6875 77.6452C8.08854 76.8327 7.17708 76.4264 5.95312 76.4264C4.72917 76.4264 3.81771 76.8327 3.21875 77.6452C2.61979 78.4525 2.32031 79.5853 2.32031 81.0436ZM13 83.7858V78.7936C13 78.5592 13.1172 78.442 13.3516 78.442H14.0234C14.2578 78.442 14.375 78.5592 14.375 78.7936V83.4108C14.375 84.4316 14.5443 85.0801 14.8828 85.3561C15.2214 85.6269 15.6406 85.7624 16.1406 85.7624C16.7969 85.7624 17.2995 85.5618 17.6484 85.1608C17.9974 84.7545 18.1719 84.0618 18.1719 83.0827V78.7936C18.1719 78.5592 18.2891 78.442 18.5234 78.442H19.1953C19.4297 78.442 19.5469 78.5592 19.5469 78.7936V86.2936C19.5469 86.528 19.4297 86.6452 19.1953 86.6452H18.5391C18.3047 86.6452 18.1875 86.528 18.1875 86.2936V85.6686H18.1562C17.8177 86.0436 17.4531 86.3223 17.0625 86.5045C16.6719 86.6868 16.1953 86.778 15.6328 86.778C14.7214 86.778 14.0547 86.5124 13.6328 85.9811C13.2109 85.4447 13 84.7129 13 83.7858ZM22.1172 86.6452C21.8828 86.6452 21.7656 86.528 21.7656 86.2936V78.7936C21.7656 78.5592 21.8828 78.442 22.1172 78.442H22.7734C23.0078 78.442 23.125 78.5592 23.125 78.7936V79.7311H23.1562C23.4062 79.2624 23.7005 78.9082 24.0391 78.6686C24.3776 78.429 24.7995 78.3092 25.3047 78.3092C25.638 78.3092 25.8724 78.3379 26.0078 78.3952C26.1276 78.442 26.1719 78.5202 26.1406 78.6295L25.9609 79.2702C25.9349 79.3639 25.8672 79.4004 25.7578 79.3795C25.5755 79.3431 25.4036 79.3249 25.2422 79.3249C24.6328 79.3249 24.1302 79.6009 23.7344 80.153C23.3385 80.6999 23.1406 81.4473 23.1406 82.3952V86.2936C23.1406 86.528 23.0234 86.6452 22.7891 86.6452H22.1172ZM26.9609 84.4577C26.9609 83.5306 27.3932 82.8509 28.2578 82.4186C29.1276 81.9863 30.4245 81.7337 32.1484 81.6608V81.1295C32.1484 80.64 32.0365 80.2181 31.8125 79.8639C31.5938 79.5045 31.1562 79.3249 30.5 79.3249C30.0833 79.3249 29.75 79.3665 29.5 79.4499C29.25 79.528 29.0208 79.6348 28.8125 79.7702C28.6094 79.9004 28.4141 80.0697 28.2266 80.278C28.0859 80.4342 27.9531 80.442 27.8281 80.3014L27.4219 79.8327C27.3073 79.7025 27.3464 79.5462 27.5391 79.3639C27.8151 79.1035 28.0833 78.9082 28.3438 78.778C28.6042 78.6478 28.9271 78.5384 29.3125 78.4499C29.7031 78.3561 30.099 78.3092 30.5 78.3092C31.5885 78.3092 32.3646 78.5905 32.8281 79.153C33.2917 79.7103 33.5234 80.4759 33.5234 81.4499V86.2936C33.5234 86.528 33.4062 86.6452 33.1719 86.6452H32.4688C32.2656 86.6452 32.1641 86.528 32.1641 86.2936V85.9108H32.1484C31.737 86.2337 31.3333 86.4603 30.9375 86.5905C30.5469 86.7155 30.1094 86.778 29.625 86.778C28.7708 86.778 28.112 86.5749 27.6484 86.1686C27.1901 85.7572 26.9609 85.1868 26.9609 84.4577ZM28.3828 84.4889C28.3828 84.8118 28.4505 85.0723 28.5859 85.2702C28.7214 85.4629 28.9089 85.5879 29.1484 85.6452C29.388 85.6973 29.638 85.7233 29.8984 85.7233C30.2995 85.7233 30.6797 85.6842 31.0391 85.6061C31.3984 85.528 31.7682 85.3223 32.1484 84.9889V82.6842C31.0964 82.7624 30.3464 82.8587 29.8984 82.9733C29.4505 83.0827 29.0859 83.2754 28.8047 83.5514C28.5234 83.8223 28.3828 84.1348 28.3828 84.4889ZM36.1016 86.6452C35.8672 86.6452 35.75 86.528 35.75 86.2936V78.7936C35.75 78.5592 35.8672 78.442 36.1016 78.442H36.7578C36.9922 78.442 37.1094 78.5592 37.1094 78.7936V79.4186H37.1406C37.4792 79.0436 37.8438 78.765 38.2344 78.5827C38.625 78.4004 39.112 78.3092 39.6953 78.3092C40.6432 78.3092 41.3229 78.5775 41.7344 79.1139C42.151 79.6452 42.3594 80.3743 42.3594 81.3014V86.2936C42.3594 86.528 42.2422 86.6452 42.0078 86.6452H41.3359C41.1016 86.6452 40.9844 86.528 40.9844 86.2936V81.6764C40.9844 80.6556 40.8151 80.0098 40.4766 79.7389C40.138 79.4629 39.7083 79.3249 39.1875 79.3249C38.5104 79.3249 37.9974 79.528 37.6484 79.9342C37.2995 80.3353 37.125 81.0254 37.125 82.0045V86.2936C37.125 86.528 37.0078 86.6452 36.7734 86.6452H36.1016ZM49.3359 75.9577C49.2057 75.6139 49.276 75.442 49.5469 75.442H50.3438C50.625 75.442 50.8125 75.5697 50.9062 75.8249L53.4453 82.817C53.5547 83.1243 53.6901 83.5384 53.8516 84.0592C54.0182 84.5749 54.1302 84.9863 54.1875 85.2936H54.2188C54.276 84.9863 54.3854 84.5749 54.5469 84.0592C54.7135 83.5384 54.8516 83.1243 54.9609 82.817L57.5 75.8249C57.5938 75.5697 57.7812 75.442 58.0625 75.442H58.8594C59.1302 75.442 59.2005 75.6139 59.0703 75.9577L55.2656 86.1686C55.1458 86.4863 54.974 86.6452 54.75 86.6452H53.6562C53.4323 86.6452 53.2604 86.4863 53.1406 86.1686L49.3359 75.9577ZM59.4766 82.5436C59.4766 81.3197 59.7995 80.3092 60.4453 79.5124C61.0964 78.7103 62.0469 78.3092 63.2969 78.3092C64.5469 78.3092 65.4948 78.7103 66.1406 79.5124C66.7917 80.3092 67.1172 81.3197 67.1172 82.5436C67.1172 83.7676 66.7917 84.7806 66.1406 85.5827C65.4948 86.3795 64.5469 86.778 63.2969 86.778C62.0469 86.778 61.0964 86.3795 60.4453 85.5827C59.7995 84.7806 59.4766 83.7676 59.4766 82.5436ZM60.9297 82.5436C60.9297 83.6374 61.1458 84.4473 61.5781 84.9733C62.0104 85.4993 62.5833 85.7624 63.2969 85.7624C64.0104 85.7624 64.5833 85.4993 65.0156 84.9733C65.4479 84.4473 65.6641 83.6374 65.6641 82.5436C65.6641 81.4499 65.4479 80.64 65.0156 80.1139C64.5833 79.5879 64.0104 79.3249 63.2969 79.3249C62.5833 79.3249 62.0104 79.5879 61.5781 80.1139C61.1458 80.64 60.9297 81.4499 60.9297 82.5436ZM69.2422 86.6452C69.0078 86.6452 68.8906 86.528 68.8906 86.2936V78.7936C68.8906 78.5592 69.0078 78.442 69.2422 78.442H69.9141C70.1484 78.442 70.2656 78.5592 70.2656 78.7936V86.2936C70.2656 86.528 70.1484 86.6452 69.9141 86.6452H69.2422ZM69.2422 76.9577C69.0078 76.9577 68.8906 76.8405 68.8906 76.6061V75.9342C68.8906 75.6999 69.0078 75.5827 69.2422 75.5827H69.9141C70.1484 75.5827 70.2656 75.6999 70.2656 75.9342V76.6061C70.2656 76.8405 70.1484 76.9577 69.9141 76.9577H69.2422ZM72.0391 82.5436C72.0391 81.3197 72.3411 80.3092 72.9453 79.5124C73.5547 78.7103 74.4844 78.3092 75.7344 78.3092C76.5781 78.3092 77.2214 78.4603 77.6641 78.7624C78.112 79.0592 78.4349 79.3639 78.6328 79.6764C78.7422 79.8483 78.7188 79.9863 78.5625 80.0905L78.0703 80.4108C77.9141 80.5202 77.7578 80.4499 77.6016 80.1999C77.4505 79.9603 77.237 79.7545 76.9609 79.5827C76.6901 79.4108 76.2812 79.3249 75.7344 79.3249C75.0208 79.3249 74.4688 79.5879 74.0781 80.1139C73.6875 80.64 73.4922 81.4499 73.4922 82.5436C73.4922 83.6374 73.6875 84.4473 74.0781 84.9733C74.4688 85.4993 75.0208 85.7624 75.7344 85.7624C76.3125 85.7624 76.7552 85.653 77.0625 85.4342C77.3698 85.2103 77.5938 84.9681 77.7344 84.7077C77.8698 84.4629 78.0234 84.3926 78.1953 84.4967L78.7188 84.8092C78.875 84.903 78.8984 85.0436 78.7891 85.2311C78.6589 85.4551 78.362 85.7702 77.8984 86.1764C77.4401 86.5775 76.7188 86.778 75.7344 86.778C74.4844 86.778 73.5547 86.3795 72.9453 85.5827C72.3411 84.7806 72.0391 83.7676 72.0391 82.5436ZM80.0547 82.5436C80.0547 81.2519 80.3776 80.2233 81.0234 79.4577C81.6693 78.692 82.5938 78.3092 83.7969 78.3092C84.7969 78.3092 85.625 78.6608 86.2812 79.3639C86.9427 80.0618 87.2734 81.179 87.2734 82.7155C87.2734 82.9499 87.1667 83.067 86.9531 83.067H81.5078C81.5964 84.0723 81.8672 84.7728 82.3203 85.1686C82.7734 85.5592 83.2865 85.7545 83.8594 85.7545C84.4635 85.7545 84.9271 85.653 85.25 85.4499C85.5729 85.2467 85.8099 85.0462 85.9609 84.8483C86.1276 84.6295 86.2891 84.5879 86.4453 84.7233L86.9062 85.1217C87.026 85.2259 87.026 85.3691 86.9062 85.5514C86.8073 85.7025 86.5234 85.9447 86.0547 86.278C85.5911 86.6113 84.8594 86.778 83.8594 86.778C82.5573 86.778 81.5964 86.3952 80.9766 85.6295C80.362 84.8639 80.0547 83.8353 80.0547 82.5436ZM81.4766 82.0514H85.8906C85.8698 81.3223 85.6823 80.6842 85.3281 80.1374C84.974 79.5853 84.4531 79.3092 83.7656 79.3092C83.1615 79.3092 82.6484 79.5124 82.2266 79.9186C81.8047 80.3197 81.5547 81.0306 81.4766 82.0514Z" fill="black"/>
</svg>
